<mxfile host="app.diagrams.net" agent="Mozilla/5.0 (Windows NT 10.0; Win64; x64) AppleWebKit/537.36 (KHTML, like Gecko) Chrome/131.0.0.0 Safari/537.36" version="24.9.0">
  <diagram name="Page-1" id="raRef1iYdznAiZ_ogh-n">
    <mxGraphModel dx="965" dy="510" grid="1" gridSize="10" guides="1" tooltips="1" connect="1" arrows="1" fold="1" page="1" pageScale="1" pageWidth="850" pageHeight="1100" math="0" shadow="0">
      <root>
        <mxCell id="0" />
        <mxCell id="1" parent="0" />
        <mxCell id="A_0jLxTULJrBuD5DZNzR-3" value="" style="edgeStyle=orthogonalEdgeStyle;rounded=0;orthogonalLoop=1;jettySize=auto;html=1;" edge="1" parent="1" source="A_0jLxTULJrBuD5DZNzR-1" target="A_0jLxTULJrBuD5DZNzR-2">
          <mxGeometry relative="1" as="geometry" />
        </mxCell>
        <mxCell id="A_0jLxTULJrBuD5DZNzR-1" value="start" style="strokeWidth=2;html=1;shape=mxgraph.flowchart.start_1;whiteSpace=wrap;" vertex="1" parent="1">
          <mxGeometry x="410" y="110" width="100" height="60" as="geometry" />
        </mxCell>
        <mxCell id="A_0jLxTULJrBuD5DZNzR-5" value="" style="edgeStyle=orthogonalEdgeStyle;rounded=0;orthogonalLoop=1;jettySize=auto;html=1;" edge="1" parent="1" source="A_0jLxTULJrBuD5DZNzR-2" target="A_0jLxTULJrBuD5DZNzR-4">
          <mxGeometry relative="1" as="geometry" />
        </mxCell>
        <mxCell id="A_0jLxTULJrBuD5DZNzR-2" value="กำหนดตัวแปรให้วันและวินาที" style="whiteSpace=wrap;html=1;strokeWidth=2;" vertex="1" parent="1">
          <mxGeometry x="400" y="200" width="120" height="60" as="geometry" />
        </mxCell>
        <mxCell id="A_0jLxTULJrBuD5DZNzR-7" value="" style="edgeStyle=orthogonalEdgeStyle;rounded=0;orthogonalLoop=1;jettySize=auto;html=1;" edge="1" parent="1" source="A_0jLxTULJrBuD5DZNzR-4" target="A_0jLxTULJrBuD5DZNzR-6">
          <mxGeometry relative="1" as="geometry" />
        </mxCell>
        <mxCell id="A_0jLxTULJrBuD5DZNzR-4" value="ป้อมค่าตัวเลขวันที่ต้องการ" style="shape=parallelogram;perimeter=parallelogramPerimeter;whiteSpace=wrap;html=1;fixedSize=1;strokeWidth=2;" vertex="1" parent="1">
          <mxGeometry x="400" y="300" width="120" height="60" as="geometry" />
        </mxCell>
        <mxCell id="A_0jLxTULJrBuD5DZNzR-9" value="" style="edgeStyle=orthogonalEdgeStyle;rounded=0;orthogonalLoop=1;jettySize=auto;html=1;" edge="1" parent="1" source="A_0jLxTULJrBuD5DZNzR-6" target="A_0jLxTULJrBuD5DZNzR-8">
          <mxGeometry relative="1" as="geometry" />
        </mxCell>
        <mxCell id="A_0jLxTULJrBuD5DZNzR-6" value="คำนวนค่าวันเป็นวินาทีจากสูตร วัน คูณ 86400 วินาที" style="whiteSpace=wrap;html=1;strokeWidth=2;" vertex="1" parent="1">
          <mxGeometry x="400" y="400" width="120" height="60" as="geometry" />
        </mxCell>
        <mxCell id="A_0jLxTULJrBuD5DZNzR-11" value="" style="edgeStyle=orthogonalEdgeStyle;rounded=0;orthogonalLoop=1;jettySize=auto;html=1;" edge="1" parent="1" source="A_0jLxTULJrBuD5DZNzR-8" target="A_0jLxTULJrBuD5DZNzR-10">
          <mxGeometry relative="1" as="geometry" />
        </mxCell>
        <mxCell id="A_0jLxTULJrBuD5DZNzR-8" value="จะได้คำตอบอวินาที" style="shape=parallelogram;perimeter=parallelogramPerimeter;whiteSpace=wrap;html=1;fixedSize=1;strokeWidth=2;" vertex="1" parent="1">
          <mxGeometry x="400" y="500" width="120" height="60" as="geometry" />
        </mxCell>
        <mxCell id="A_0jLxTULJrBuD5DZNzR-10" value="end" style="strokeWidth=2;html=1;shape=mxgraph.flowchart.start_1;whiteSpace=wrap;" vertex="1" parent="1">
          <mxGeometry x="410" y="590" width="100" height="60" as="geometry" />
        </mxCell>
      </root>
    </mxGraphModel>
  </diagram>
</mxfile>
